<?xml version="1.0" standalone="no"?>
<!DOCTYPE svg PUBLIC "-//W3C//DTD SVG 20010904//EN"
 "http://www.w3.org/TR/2001/REC-SVG-20010904/DTD/svg10.dtd">
<svg version="1.0" xmlns="http://www.w3.org/2000/svg"
 width="256.000000pt" height="256.000000pt" viewBox="0 0 256.000000 256.000000"
 preserveAspectRatio="xMidYMid meet">

<g transform="translate(0.000000,256.000000) scale(0.100000,-0.100000)"
fill="#000000" stroke="none">
<path d="M925 2293 c-119 -17 -272 -81 -372 -157 -81 -62 -144 -140 -198 -250
-38 -77 -50 -93 -97 -123 -76 -51 -105 -80 -149 -147 -104 -158 -123 -373 -52
-571 84 -231 278 -347 487 -291 l63 17 314 -176 c535 -301 693 -385 726 -385
36 0 285 123 508 251 189 108 273 163 338 221 l47 43 2 300 c2 165 -1 309 -5
321 -7 20 -97 67 -277 147 l-55 24 -33 99 c-43 128 -97 241 -122 254 -36 19
-88 -19 -145 -107 -15 -24 -31 -43 -35 -43 -17 0 -92 86 -151 173 -186 272
-421 411 -687 406 -43 -1 -90 -4 -107 -6z m323 -58 c159 -51 308 -170 435
-349 39 -55 86 -117 105 -138 33 -37 33 -37 10 -42 -13 -2 -51 -9 -86 -15 -35
-7 -90 -24 -124 -38 -59 -26 -60 -26 -71 -7 -5 10 -36 45 -67 77 -41 42 -64
57 -84 57 -48 0 -64 -17 -86 -87 -40 -129 -68 -501 -37 -491 8 3 14 43 20 124
15 239 53 424 87 424 29 0 75 -37 116 -93 25 -34 47 -64 49 -65 2 -2 45 13 97
34 77 31 109 38 185 42 l93 5 26 45 c33 57 92 122 110 122 19 0 66 -96 113
-231 21 -63 55 -151 75 -196 51 -114 50 -120 -23 -125 -86 -6 -155 -55 -176
-125 -9 -32 22 -31 34 0 22 58 112 103 189 94 84 -9 152 -114 123 -189 -14
-38 -54 -62 -88 -53 -39 9 -93 70 -93 105 0 16 -3 31 -8 34 -4 2 -40 -16 -80
-40 -72 -44 -73 -44 -104 -28 -50 26 -150 16 -231 -24 -65 -32 -147 -109 -147
-138 0 -25 18 -15 66 36 65 70 140 105 226 105 57 0 70 -4 93 -25 79 -73 71
-195 -15 -221 -33 -10 -43 -9 -64 5 -14 9 -32 29 -40 44 -23 44 -82 96 -101
88 -14 -5 -15 -9 -6 -20 10 -12 0 -21 -52 -50 -35 -20 -73 -36 -85 -36 -11 0
-130 55 -264 123 -177 89 -242 126 -239 137 21 77 13 115 -36 164 -91 91 -218
111 -310 49 -37 -25 -38 -25 -68 -8 -16 10 -118 62 -225 117 l-195 99 -23 -28
c-33 -41 -62 -145 -62 -222 1 -279 205 -438 373 -291 30 26 61 72 98 142 66
126 108 171 176 187 85 21 190 -21 233 -92 28 -45 25 -78 -8 -110 -34 -33 -43
-33 -68 -6 -10 12 -34 28 -52 36 -30 12 -37 12 -80 -7 -70 -31 -90 -55 -142
-166 -29 -61 -60 -111 -79 -126 -88 -75 -246 -94 -358 -43 -155 69 -253 255
-253 479 0 184 64 326 193 427 27 22 52 39 57 39 4 0 7 -21 6 -47 -2 -76 18
-66 32 17 42 234 198 412 442 501 150 54 324 60 468 14z m-769 -833 c90 -46
181 -94 202 -107 l37 -24 -54 -102 c-73 -135 -87 -154 -137 -178 -153 -74
-279 56 -281 289 -1 84 2 102 26 153 15 32 31 57 35 55 5 -2 82 -41 172 -86z
m1929 -12 c74 -34 85 -45 54 -54 -10 -4 -45 -22 -76 -41 -46 -28 -62 -33 -77
-24 -28 15 -23 25 21 43 22 9 40 23 40 31 0 19 -8 19 -54 0 -32 -13 -36 -14
-36 0 0 8 14 21 30 30 55 28 28 46 -32 20 -13 -5 -21 2 -32 30 -9 21 -16 39
-16 41 0 4 21 -6 178 -76z m99 -362 l-4 -293 -81 -65 c-110 -88 -698 -420
-745 -420 -10 0 -16 16 -20 48 -12 91 -20 379 -13 444 l7 67 69 40 c38 23 77
41 87 41 11 0 26 -15 38 -37 48 -89 169 -97 218 -14 21 36 22 110 2 158 -8 19
-15 39 -15 44 0 9 89 64 93 58 60 -92 95 -119 154 -119 88 0 130 113 80 212
l-23 46 70 41 c39 23 75 41 79 41 5 0 7 -132 4 -292z m-1519 61 c28 -25 41
-30 66 -25 17 4 36 7 41 7 6 1 73 -33 150 -75 76 -41 191 -99 255 -127 l115
-52 -3 -171 c-2 -94 1 -220 6 -281 5 -60 8 -111 6 -113 -1 -2 -31 11 -65 29
-91 45 -889 489 -907 504 -2 2 16 23 40 47 29 29 52 66 72 116 31 79 63 125
111 153 43 27 72 24 113 -12z"/>
<path d="M1997 1382 c-33 -36 -16 -92 28 -92 30 0 45 19 45 57 0 22 -6 36 -19
43 -27 14 -35 13 -54 -8z"/>
<path d="M1573 1264 c-15 -24 -15 -29 -2 -53 10 -17 23 -26 39 -26 16 0 29 9
39 26 13 24 13 29 -2 53 -22 33 -52 33 -74 0z"/>
<path d="M1463 1119 c-52 -10 -133 -45 -133 -57 0 -19 14 -21 42 -6 17 9 58
21 92 28 38 8 61 18 61 26 0 18 -12 19 -62 9z"/>
<path d="M1518 1060 c-46 -14 -128 -63 -128 -77 0 -19 17 -16 57 8 19 12 53
27 76 34 23 7 42 18 42 25 0 17 -14 20 -47 10z"/>
</g>
</svg>
